<svg width="100" height="100" viewBox="0 0 100 100" fill="none" xmlns="http://www.w3.org/2000/svg">
<path d="M25.99 24.44C25.95 24.715 25.875 24.975 25.765 25.22C25.875 24.97 25.95 24.71 25.99 24.44Z" fill="#1972D2"/>
<path d="M26.025 24C26.025 24.15 26.01 24.295 25.99 24.44C26.03 24.175 26.035 23.905 26 23.64C26.02 23.76 26.025 23.88 26.025 24Z" fill="#1972D2"/>
<path d="M95.0001 81V87H90.0001C88.3451 87 87.0001 85.655 87.0001 84C87.0001 76.28 80.7201 70 73.0001 70C70.4901 70 68.0301 70.67 65.8851 71.94C64.4601 72.78 62.6201 72.31 61.7801 70.88C60.9351 69.455 61.4101 67.615 62.8351 66.775C65.6651 65.105 68.8701 64.155 72.1551 64.02L76.0051 7.795C76.1151 6.22 77.4251 5 79.0001 5H87.0001C88.6551 5 90.0001 6.345 90.0001 8C90.0001 9.655 88.6551 11 87.0001 11H81.8001L78.1301 64.665C85.7401 66.685 91.5801 73.09 92.7751 81H95.0001Z" fill="#1972D2"/>
<path d="M30.5 44C30.125 44 29.75 44.01 29.38 44.03L23.965 7.56C23.75 6.09 22.485 5 21 5H13C11.345 5 10 6.345 10 8C10 9.655 11.345 11 13 11H18.415L19.9 21H5V27H15.775L5 37.76V46.245L21.24 30.025L23.46 44.99C12.815 48.05 5 57.88 5 69.5C5 83.56 16.44 95 30.5 95C44.56 95 56 83.56 56 69.5C56 55.44 44.56 44 30.5 44ZM26.025 24C26.025 24.15 26.01 24.295 25.99 24.44C26.03 24.175 26.035 23.905 26 23.64C26.02 23.76 26.025 23.88 26.025 24ZM25.765 25.22C25.875 24.97 25.95 24.71 25.99 24.44C25.95 24.715 25.875 24.975 25.765 25.22ZM30.5 89C19.75 89 11 80.25 11 69.5C11 60.9 16.6 53.575 24.35 50.995L27.535 72.44C27.755 73.93 29.035 75 30.495 75C30.645 75 30.79 74.99 30.94 74.965C32.58 74.725 33.71 73.2 33.465 71.56L30.265 50H30.5C41.25 50 50 58.75 50 69.5C50 80.25 41.25 89 30.5 89Z" fill="#1972D2"/>
<path d="M25.99 24.44C25.95 24.715 25.875 24.975 25.765 25.22C25.875 24.97 25.95 24.71 25.99 24.44Z" fill="#1972D2"/>
<path d="M26.025 24C26.025 24.15 26.01 24.295 25.99 24.44C26.03 24.175 26.035 23.905 26 23.64C26.02 23.76 26.025 23.88 26.025 24Z" fill="#1972D2"/>
<path d="M73 73C66.925 73 62 77.925 62 84C62 90.075 66.925 95 73 95C79.075 95 84 90.075 84 84C84 77.925 79.075 73 73 73ZM73 88C70.79 88 69 86.21 69 84C69 81.79 70.79 80 73 80C75.21 80 77 81.79 77 84C77 86.21 75.21 88 73 88Z" fill="#1972D2"/>
</svg>
